<svg xmlns="http://www.w3.org/2000/svg" viewBox="0 0 24 24">
  <defs><linearGradient id="g" x1="0" y1="0" x2="1" y2="1"><stop stop-color="#55d6be"/><stop offset="1" stop-color="#549cf5"/></linearGradient></defs>
  <rect x="1" y="1" width="22" height="22" rx="6" fill="url(#g)"/>
  <!-- Lucide Box icon: https://lucide.dev/icons/box -->
  <g fill="none" stroke="#071015" stroke-linecap="round" stroke-linejoin="round" stroke-width="1.8" transform="translate(4 4) scale(.6667)">
    <path d="M21 8a2 2 0 0 0-1-1.73l-7-4a2 2 0 0 0-2 0l-7 4A2 2 0 0 0 3 8v8a2 2 0 0 0 1 1.73l7 4a2 2 0 0 0 2 0l7-4A2 2 0 0 0 21 16Z"/>
    <path d="m3.3 7 8.7 5 8.7-5"/>
    <path d="M12 22V12"/>
  </g>
</svg>
